<?xml version="1.0" encoding="UTF-8" standalone="no"?>
<!DOCTYPE svg PUBLIC "-//W3C//DTD SVG 1.1//EN"
 "http://www.w3.org/Graphics/SVG/1.1/DTD/svg11.dtd">
<!-- Generated by graphviz version 2.38.0 (20140413.2041)
 -->
<!-- Title: G Pages: 1 -->
<svg width="397pt" height="381pt"
 viewBox="0.00 0.00 397.41 381.00" xmlns="http://www.w3.org/2000/svg" xmlns:xlink="http://www.w3.org/1999/xlink">
<g id="graph0" class="graph" transform="scale(1 1) rotate(0) translate(4 377)">
<title>G</title>
<polygon fill="white" stroke="none" points="-4,4 -4,-377 393.413,-377 393.413,4 -4,4"/>
<g id="clust1" class="cluster"><title>cluster_Global</title>
<path fill="none" stroke="gray" d="M250.2,-8C250.2,-8 369.413,-8 369.413,-8 375.413,-8 381.413,-14 381.413,-20 381.413,-20 381.413,-353 381.413,-353 381.413,-359 375.413,-365 369.413,-365 369.413,-365 250.2,-365 250.2,-365 244.2,-365 238.2,-359 238.2,-353 238.2,-353 238.2,-20 238.2,-20 238.2,-14 244.2,-8 250.2,-8"/>
<text text-anchor="middle" x="309.806" y="-352.2" font-family="Times,serif" font-size="11.00" fill="gray">Global</text>
</g>
<g id="clust2" class="cluster"><title>cluster_\Battis</title>
<path fill="none" stroke="gray" d="M258.2,-16C258.2,-16 361.413,-16 361.413,-16 367.413,-16 373.413,-22 373.413,-28 373.413,-28 373.413,-326 373.413,-326 373.413,-332 367.413,-338 361.413,-338 361.413,-338 258.2,-338 258.2,-338 252.2,-338 246.2,-332 246.2,-326 246.2,-326 246.2,-28 246.2,-28 246.2,-22 252.2,-16 258.2,-16"/>
<text text-anchor="middle" x="309.806" y="-325.2" font-family="Times,serif" font-size="11.00" fill="gray">Battis</text>
</g>
<g id="clust3" class="cluster"><title>cluster_\Battis\BatchAction</title>
<path fill="none" stroke="gray" d="M266.2,-24C266.2,-24 353.413,-24 353.413,-24 359.413,-24 365.413,-30 365.413,-36 365.413,-36 365.413,-299 365.413,-299 365.413,-305 359.413,-311 353.413,-311 353.413,-311 266.2,-311 266.2,-311 260.2,-311 254.2,-305 254.2,-299 254.2,-299 254.2,-36 254.2,-36 254.2,-30 260.2,-24 266.2,-24"/>
<text text-anchor="middle" x="309.806" y="-298.2" font-family="Times,serif" font-size="11.00" fill="gray">BatchAction</text>
</g>
<!-- \\Battis\\BatchAction\\Action -->
<g id="node1" class="node"><title>\\Battis\\BatchAction\\Action</title>
<polygon fill="none" stroke="black" points="337.414,-284 282.199,-284 282.199,-248 337.414,-248 337.414,-284"/>
<text text-anchor="middle" x="309.806" y="-262.7" font-family="Courier,monospace" font-size="11.00">Action</text>
</g>
<!-- \\Battis\\BatchAction\\Batch -->
<g id="node2" class="node"><title>\\Battis\\BatchAction\\Batch</title>
<polygon fill="none" stroke="black" points="336.806,-230 282.806,-230 282.806,-194 336.806,-194 336.806,-230"/>
<text text-anchor="middle" x="309.806" y="-208.7" font-family="Courier,monospace" font-size="11.00">Batch</text>
</g>
<!-- \\MyCLabs\\Enum\\Enum -->
<g id="node6" class="node"><title>\\MyCLabs\\Enum\\Enum</title>
<ellipse fill="none" stroke="black" cx="95.1" cy="-212" rx="95.2" ry="18"/>
<text text-anchor="middle" x="95.1" y="-207.8" font-family="Times,serif" font-size="14.00" fill="gray">\MyCLabs\Enum\Enum</text>
</g>
<!-- \\Battis\\BatchAction\\Batch&#45;&gt;\\MyCLabs\\Enum\\Enum -->
<g id="edge1" class="edge"><title>\\Battis\\BatchAction\\Batch&#45;&gt;\\MyCLabs\\Enum\\Enum</title>
<path fill="none" stroke="black" d="M282.724,-212C261.894,-212 231.241,-212 200.772,-212"/>
<polygon fill="none" stroke="black" points="200.461,-208.5 190.461,-212 200.46,-215.5 200.461,-208.5"/>
</g>
<!-- \\Battis\\BatchAction\\BatchManager -->
<g id="node3" class="node"><title>\\Battis\\BatchAction\\BatchManager</title>
<polygon fill="none" stroke="black" points="357.519,-176 262.093,-176 262.093,-140 357.519,-140 357.519,-176"/>
<text text-anchor="middle" x="309.806" y="-154.7" font-family="Courier,monospace" font-size="11.00">BatchManager</text>
</g>
<!-- \\Battis\\BatchAction\\Exception -->
<g id="node4" class="node"><title>\\Battis\\BatchAction\\Exception</title>
<polygon fill="none" stroke="black" points="347.717,-122 271.896,-122 271.896,-86 347.717,-86 347.717,-122"/>
<text text-anchor="middle" x="309.806" y="-100.7" font-family="Courier,monospace" font-size="11.00">Exception</text>
</g>
<!-- \\Exception -->
<g id="node7" class="node"><title>\\Exception</title>
<ellipse fill="none" stroke="black" cx="95.1" cy="-104" rx="48.3341" ry="18"/>
<text text-anchor="middle" x="95.1" y="-99.8" font-family="Times,serif" font-size="14.00" fill="gray">\Exception</text>
</g>
<!-- \\Battis\\BatchAction\\Exception&#45;&gt;\\Exception -->
<g id="edge2" class="edge"><title>\\Battis\\BatchAction\\Exception&#45;&gt;\\Exception</title>
<path fill="none" stroke="black" d="M271.756,-104C239.225,-104 191.373,-104 153.825,-104"/>
<polygon fill="none" stroke="black" points="153.529,-100.5 143.529,-104 153.529,-107.5 153.529,-100.5"/>
</g>
<!-- \\Battis\\BatchAction\\Filter -->
<g id="node5" class="node"><title>\\Battis\\BatchAction\\Filter</title>
<polygon fill="none" stroke="black" points="337.414,-68 282.199,-68 282.199,-32 337.414,-32 337.414,-68"/>
<text text-anchor="middle" x="309.806" y="-46.7" font-family="Courier,monospace" font-size="11.00">Filter</text>
</g>
</g>
</svg>
