<?xml version="1.0" encoding="UTF-8" standalone="no"?>
<!DOCTYPE svg PUBLIC "-//W3C//DTD SVG 1.1//EN"
 "http://www.w3.org/Graphics/SVG/1.1/DTD/svg11.dtd">
<!-- Generated by graphviz version 2.38.0 (20140413.2041)
 -->
<!-- Title: G Pages: 1 -->
<svg width="728pt" height="862pt"
 viewBox="0.00 0.00 728.28 862.00" xmlns="http://www.w3.org/2000/svg" xmlns:xlink="http://www.w3.org/1999/xlink">
<g id="graph0" class="graph" transform="scale(1 1) rotate(0) translate(4 858)">
<title>G</title>
<polygon fill="white" stroke="none" points="-4,4 -4,-858 724.285,-858 724.285,4 -4,4"/>
<g id="clust1" class="cluster"><title>cluster_Global</title>
<path fill="none" stroke="gray" d="M20,-44C20,-44 700.285,-44 700.285,-44 706.285,-44 712.285,-50 712.285,-56 712.285,-56 712.285,-834 712.285,-834 712.285,-840 706.285,-846 700.285,-846 700.285,-846 20,-846 20,-846 14,-846 8,-840 8,-834 8,-834 8,-56 8,-56 8,-50 14,-44 20,-44"/>
<text text-anchor="middle" x="360.142" y="-833.2" font-family="Times,serif" font-size="11.00" fill="gray">Global</text>
</g>
<g id="clust2" class="cluster"><title>cluster_\Battis</title>
<path fill="none" stroke="gray" d="M28,-52C28,-52 692.285,-52 692.285,-52 698.285,-52 704.285,-58 704.285,-64 704.285,-64 704.285,-807 704.285,-807 704.285,-813 698.285,-819 692.285,-819 692.285,-819 28,-819 28,-819 22,-819 16,-813 16,-807 16,-807 16,-64 16,-64 16,-58 22,-52 28,-52"/>
<text text-anchor="middle" x="360.142" y="-806.2" font-family="Times,serif" font-size="11.00" fill="gray">Battis</text>
</g>
<g id="clust3" class="cluster"><title>cluster_\Battis\BatchAction</title>
<path fill="none" stroke="gray" d="M36,-60C36,-60 684.285,-60 684.285,-60 690.285,-60 696.285,-66 696.285,-72 696.285,-72 696.285,-780 696.285,-780 696.285,-786 690.285,-792 684.285,-792 684.285,-792 36,-792 36,-792 30,-792 24,-786 24,-780 24,-780 24,-72 24,-72 24,-66 30,-60 36,-60"/>
<text text-anchor="middle" x="360.142" y="-779.2" font-family="Times,serif" font-size="11.00" fill="gray">BatchAction</text>
</g>
<g id="clust4" class="cluster"><title>cluster_\Battis\BatchAction\Actions</title>
<path fill="none" stroke="gray" d="M197.422,-532C197.422,-532 676.285,-532 676.285,-532 682.285,-532 688.285,-538 688.285,-544 688.285,-544 688.285,-753 688.285,-753 688.285,-759 682.285,-765 676.285,-765 676.285,-765 197.422,-765 197.422,-765 191.422,-765 185.422,-759 185.422,-753 185.422,-753 185.422,-544 185.422,-544 185.422,-538 191.422,-532 197.422,-532"/>
<text text-anchor="middle" x="436.854" y="-752.2" font-family="Times,serif" font-size="11.00" fill="gray">Actions</text>
</g>
<g id="clust5" class="cluster"><title>cluster_\Battis\BatchAction\Sandbox</title>
<path fill="none" stroke="gray" d="M200.723,-355C200.723,-355 639.979,-355 639.979,-355 645.979,-355 651.979,-361 651.979,-367 651.979,-367 651.979,-468 651.979,-468 651.979,-474 645.979,-480 639.979,-480 639.979,-480 200.723,-480 200.723,-480 194.723,-480 188.723,-474 188.723,-468 188.723,-468 188.723,-367 188.723,-367 188.723,-361 194.723,-355 200.723,-355"/>
<text text-anchor="middle" x="420.351" y="-467.2" font-family="Times,serif" font-size="11.00" fill="gray">Sandbox</text>
</g>
<g id="clust6" class="cluster"><title>cluster_\Battis\BatchAction\Filters</title>
<path fill="none" stroke="gray" d="M523.061,-276C523.061,-276 590.471,-276 590.471,-276 596.471,-276 602.471,-282 602.471,-288 602.471,-288 602.471,-335 602.471,-335 602.471,-341 596.471,-347 590.471,-347 590.471,-347 523.061,-347 523.061,-347 517.061,-347 511.061,-341 511.061,-335 511.061,-335 511.061,-288 511.061,-288 511.061,-282 517.061,-276 523.061,-276"/>
<text text-anchor="middle" x="556.766" y="-334.2" font-family="Times,serif" font-size="11.00" fill="gray">Filters</text>
</g>
<!-- \\Battis\\BatchAction\\Actions\\ImportMySQLSchemaConfigurableAction -->
<g id="node1" class="node"><title>\\Battis\\BatchAction\\Actions\\ImportMySQLSchemaConfigurableAction</title>
<polygon fill="none" stroke="black" points="680.303,-630 433.228,-630 433.228,-594 680.303,-594 680.303,-630"/>
<text text-anchor="middle" x="556.766" y="-608.7" font-family="Courier,monospace" font-size="11.00">ImportMySQLSchemaConfigurableAction</text>
</g>
<!-- \\Battis\\BatchAction\\Actions\\ImportMySQLSchemaAction -->
<g id="node6" class="node"><title>\\Battis\\BatchAction\\Actions\\ImportMySQLSchemaAction</title>
<polygon fill="none" stroke="black" points="361.16,-632 193.51,-632 193.51,-596 361.16,-596 361.16,-632"/>
<text text-anchor="middle" x="277.335" y="-610.7" font-family="Courier,monospace" font-size="11.00">ImportMySQLSchemaAction</text>
</g>
<!-- \\Battis\\BatchAction\\Actions\\ImportMySQLSchemaConfigurableAction&#45;&gt;\\Battis\\BatchAction\\Actions\\ImportMySQLSchemaAction -->
<g id="edge1" class="edge"><title>\\Battis\\BatchAction\\Actions\\ImportMySQLSchemaConfigurableAction&#45;&gt;\\Battis\\BatchAction\\Actions\\ImportMySQLSchemaAction</title>
<path fill="none" stroke="black" d="M432.869,-612.886C412.257,-613.035 391.174,-613.187 371.47,-613.329"/>
<polygon fill="none" stroke="black" points="371.277,-609.83 361.302,-613.402 371.327,-616.83 371.277,-609.83"/>
</g>
<!-- \\Battis\\BatchAction\\Actions\\HttpAuthDirectoryAction -->
<g id="node2" class="node"><title>\\Battis\\BatchAction\\Actions\\HttpAuthDirectoryAction</title>
<polygon fill="none" stroke="black" points="361.16,-578 193.51,-578 193.51,-542 361.16,-542 361.16,-578"/>
<text text-anchor="middle" x="277.335" y="-556.7" font-family="Courier,monospace" font-size="11.00">HttpAuthDirectoryAction</text>
</g>
<!-- \\Battis\\BatchAction\\Action -->
<g id="node13" class="node"><title>\\Battis\\BatchAction\\Action</title>
<polygon fill="none" stroke="black" points="114.016,-632 31.9946,-632 31.9946,-596 114.016,-596 114.016,-632"/>
<text text-anchor="start" x="40" y="-616.2" font-family="Courier,monospace" font-size="11.00">«abstract»</text>
<text text-anchor="start" x="53.2021" y="-605.2" font-family="Courier,monospace" font-size="11.00">Action</text>
</g>
<!-- \\Battis\\BatchAction\\Actions\\HttpAuthDirectoryAction&#45;&gt;\\Battis\\BatchAction\\Action -->
<g id="edge2" class="edge"><title>\\Battis\\BatchAction\\Actions\\HttpAuthDirectoryAction&#45;&gt;\\Battis\\BatchAction\\Action</title>
<path fill="none" stroke="black" d="M208.681,-578.056C180.994,-585.446 149.531,-593.843 123.983,-600.661"/>
<polygon fill="none" stroke="black" points="122.903,-597.327 114.144,-603.287 124.708,-604.09 122.903,-597.327"/>
</g>
<!-- \\Battis\\BatchAction\\Actions\\HttpAuthDirectoryConfigurableAction -->
<g id="node3" class="node"><title>\\Battis\\BatchAction\\Actions\\HttpAuthDirectoryConfigurableAction</title>
<polygon fill="none" stroke="black" points="680.303,-576 433.228,-576 433.228,-540 680.303,-540 680.303,-576"/>
<text text-anchor="middle" x="556.766" y="-554.7" font-family="Courier,monospace" font-size="11.00">HttpAuthDirectoryConfigurableAction</text>
</g>
<!-- \\Battis\\BatchAction\\Actions\\HttpAuthDirectoryConfigurableAction&#45;&gt;\\Battis\\BatchAction\\Actions\\HttpAuthDirectoryAction -->
<g id="edge4" class="edge"><title>\\Battis\\BatchAction\\Actions\\HttpAuthDirectoryConfigurableAction&#45;&gt;\\Battis\\BatchAction\\Actions\\HttpAuthDirectoryAction</title>
<path fill="none" stroke="black" d="M432.869,-558.886C412.257,-559.035 391.174,-559.187 371.47,-559.329"/>
<polygon fill="none" stroke="black" points="371.277,-555.83 361.302,-559.402 371.327,-562.83 371.277,-555.83"/>
</g>
<!-- \\Battis\\BatchAction\\Actions\\ImportConfigXMLAction -->
<g id="node4" class="node"><title>\\Battis\\BatchAction\\Actions\\ImportConfigXMLAction</title>
<polygon fill="none" stroke="black" points="633.889,-684 479.643,-684 479.643,-648 633.889,-648 633.889,-684"/>
<text text-anchor="middle" x="556.766" y="-662.7" font-family="Courier,monospace" font-size="11.00">ImportConfigXMLAction</text>
</g>
<!-- \\Battis\\BatchAction\\Actions\\ImportConfigXMLAction&#45;&gt;\\Battis\\BatchAction\\Action -->
<g id="edge6" class="edge"><title>\\Battis\\BatchAction\\Actions\\ImportConfigXMLAction&#45;&gt;\\Battis\\BatchAction\\Action</title>
<path fill="none" stroke="black" d="M276.335,-693C219.366,-682.371 157.881,-656.034 117.832,-636.678"/>
<polygon fill="none" stroke="black" points="119.147,-633.425 108.627,-632.17 116.068,-639.712 119.147,-633.425"/>
<path fill="none" stroke="black" d="M483.718,-684.026C427.432,-695.463 347.433,-705.893 278.335,-693"/>
</g>
<!-- \\Battis\\BatchAction\\Actions\\ExportArrayAction -->
<g id="node5" class="node"><title>\\Battis\\BatchAction\\Actions\\ExportArrayAction</title>
<polygon fill="none" stroke="black" points="620.984,-738 492.547,-738 492.547,-702 620.984,-702 620.984,-738"/>
<text text-anchor="middle" x="556.766" y="-716.7" font-family="Courier,monospace" font-size="11.00">ExportArrayAction</text>
</g>
<!-- \\Battis\\BatchAction\\Actions\\ExportArrayAction&#45;&gt;\\Battis\\BatchAction\\Action -->
<g id="edge8" class="edge"><title>\\Battis\\BatchAction\\Actions\\ExportArrayAction&#45;&gt;\\Battis\\BatchAction\\Action</title>
<path fill="none" stroke="black" d="M492.52,-717C436,-713.572 351.119,-706.581 278.335,-693"/>
</g>
<!-- \\Battis\\BatchAction\\Actions\\ImportMySQLSchemaAction&#45;&gt;\\Battis\\BatchAction\\Action -->
<g id="edge11" class="edge"><title>\\Battis\\BatchAction\\Actions\\ImportMySQLSchemaAction&#45;&gt;\\Battis\\BatchAction\\Action</title>
<path fill="none" stroke="black" d="M193.456,-614C170.023,-614 145.235,-614 124.351,-614"/>
<polygon fill="none" stroke="black" points="124.126,-610.5 114.126,-614 124.126,-617.5 124.126,-610.5"/>
</g>
<!-- \\Battis\\BatchAction\\Sandbox\\SandboxReplaceableData -->
<g id="node7" class="node"><title>\\Battis\\BatchAction\\Sandbox\\SandboxReplaceableData</title>
<polygon fill="none" stroke="black" points="358.059,-399 196.611,-399 196.611,-363 358.059,-363 358.059,-399"/>
<text text-anchor="middle" x="277.335" y="-377.7" font-family="Courier,monospace" font-size="11.00">SandboxReplaceableData</text>
</g>
<!-- \\Battis\\BatchAction\\Sandbox\\Sandbox_Exception -->
<g id="node8" class="node"><title>\\Battis\\BatchAction\\Sandbox\\Sandbox_Exception</title>
<polygon fill="none" stroke="black" points="620.984,-453 492.547,-453 492.547,-417 620.984,-417 620.984,-453"/>
<text text-anchor="middle" x="556.766" y="-431.7" font-family="Courier,monospace" font-size="11.00">Sandbox_Exception</text>
</g>
<!-- \\Battis\\BatchAction\\BatchManager_Exception -->
<g id="node15" class="node"><title>\\Battis\\BatchAction\\BatchManager_Exception</title>
<polygon fill="none" stroke="black" points="358.059,-524 196.611,-524 196.611,-488 358.059,-488 358.059,-524"/>
<text text-anchor="middle" x="277.335" y="-502.7" font-family="Courier,monospace" font-size="11.00">BatchManager_Exception</text>
</g>
<!-- \\Battis\\BatchAction\\Sandbox\\Sandbox_Exception&#45;&gt;\\Battis\\BatchAction\\BatchManager_Exception -->
<g id="edge7" class="edge"><title>\\Battis\\BatchAction\\Sandbox\\Sandbox_Exception&#45;&gt;\\Battis\\BatchAction\\BatchManager_Exception</title>
<path fill="none" stroke="black" d="M492.465,-451.2C452.703,-461.376 401.063,-474.592 358.458,-485.495"/>
<polygon fill="none" stroke="black" points="357.496,-482.128 348.676,-487.998 359.231,-488.91 357.496,-482.128"/>
</g>
<!-- \\Battis\\BatchAction\\Sandbox\\ConfigXMLReplaceableData -->
<g id="node9" class="node"><title>\\Battis\\BatchAction\\Sandbox\\ConfigXMLReplaceableData</title>
<polygon fill="none" stroke="black" points="644.192,-399 469.34,-399 469.34,-363 644.192,-363 644.192,-399"/>
<text text-anchor="middle" x="556.766" y="-377.7" font-family="Courier,monospace" font-size="11.00">ConfigXMLReplaceableData</text>
</g>
<!-- \\Battis\\BatchAction\\Sandbox\\ConfigXMLReplaceableData&#45;&gt;\\Battis\\BatchAction\\Sandbox\\SandboxReplaceableData -->
<g id="edge9" class="edge"><title>\\Battis\\BatchAction\\Sandbox\\ConfigXMLReplaceableData&#45;&gt;\\Battis\\BatchAction\\Sandbox\\SandboxReplaceableData</title>
<path fill="none" stroke="black" d="M469.506,-381C437.498,-381 401.122,-381 368.754,-381"/>
<polygon fill="none" stroke="black" points="368.396,-377.5 358.396,-381 368.396,-384.5 368.396,-377.5"/>
</g>
<!-- \\Battis\\BatchAction\\Filters\\TagFilter -->
<g id="node10" class="node"><title>\\Battis\\BatchAction\\Filters\\TagFilter</title>
<polygon fill="none" stroke="black" points="594.677,-320 518.855,-320 518.855,-284 594.677,-284 594.677,-320"/>
<text text-anchor="middle" x="556.766" y="-298.7" font-family="Courier,monospace" font-size="11.00">TagFilter</text>
</g>
<!-- \\Battis\\BatchAction\\Filter -->
<g id="node17" class="node"><title>\\Battis\\BatchAction\\Filter</title>
<polygon fill="none" stroke="black" points="304.943,-320 249.727,-320 249.727,-284 304.943,-284 304.943,-320"/>
<text text-anchor="middle" x="277.335" y="-298.7" font-family="Courier,monospace" font-size="11.00">Filter</text>
</g>
<!-- \\Battis\\BatchAction\\Filters\\TagFilter&#45;&gt;\\Battis\\BatchAction\\Filter -->
<g id="edge3" class="edge"><title>\\Battis\\BatchAction\\Filters\\TagFilter&#45;&gt;\\Battis\\BatchAction\\Filter</title>
<path fill="none" stroke="black" stroke-dasharray="1,5" d="M518.925,-302C465.863,-302 368.475,-302 315.328,-302"/>
<polygon fill="none" stroke="black" points="315.315,-298.5 305.314,-302 315.314,-305.5 315.315,-298.5"/>
</g>
<!-- \\Battis\\BatchAction\\Result -->
<g id="node11" class="node"><title>\\Battis\\BatchAction\\Result</title>
<polygon fill="none" stroke="black" points="584.374,-266 529.158,-266 529.158,-230 584.374,-230 584.374,-266"/>
<text text-anchor="middle" x="556.766" y="-244.7" font-family="Courier,monospace" font-size="11.00">Result</text>
</g>
<!-- \\Battis\\BatchAction\\Sandbox -->
<g id="node12" class="node"><title>\\Battis\\BatchAction\\Sandbox</title>
<polygon fill="none" stroke="black" points="587.974,-212 525.558,-212 525.558,-176 587.974,-176 587.974,-212"/>
<text text-anchor="middle" x="556.766" y="-190.7" font-family="Courier,monospace" font-size="11.00">Sandbox</text>
</g>
<!-- \\Battis\\BatchAction\\BatchManager -->
<g id="node14" class="node"><title>\\Battis\\BatchAction\\BatchManager</title>
<polygon fill="none" stroke="black" points="604.479,-158 509.053,-158 509.053,-122 604.479,-122 604.479,-158"/>
<text text-anchor="middle" x="556.766" y="-136.7" font-family="Courier,monospace" font-size="11.00">BatchManager</text>
</g>
<!-- \\Exception -->
<g id="node18" class="node"><title>\\Exception</title>
<ellipse fill="none" stroke="black" cx="73.0054" cy="-18" rx="48.3341" ry="18"/>
<text text-anchor="middle" x="73.0054" y="-13.8" font-family="Times,serif" font-size="14.00" fill="gray">\Exception</text>
</g>
<!-- \\Battis\\BatchAction\\BatchManager_Exception&#45;&gt;\\Exception -->
<g id="edge5" class="edge"><title>\\Battis\\BatchAction\\BatchManager_Exception&#45;&gt;\\Exception</title>
<path fill="none" stroke="black" d="M196.563,-493.24C192.477,-490.649 188.711,-487.595 185.422,-484 55.6038,-342.082 217.294,-222.74 121.422,-56 117.96,-49.9783 113.142,-44.5403 107.895,-39.7842"/>
<polygon fill="none" stroke="black" points="109.959,-36.9507 100.007,-33.3153 105.52,-42.3632 109.959,-36.9507"/>
</g>
<!-- \\Battis\\BatchAction\\Action_Exception -->
<g id="node16" class="node"><title>\\Battis\\BatchAction\\Action_Exception</title>
<polygon fill="none" stroke="black" points="617.384,-104 496.148,-104 496.148,-68 617.384,-68 617.384,-104"/>
<text text-anchor="middle" x="556.766" y="-82.7" font-family="Courier,monospace" font-size="11.00">Action_Exception</text>
</g>
<!-- \\Battis\\BatchAction\\Action_Exception&#45;&gt;\\Exception -->
<g id="edge10" class="edge"><title>\\Battis\\BatchAction\\Action_Exception&#45;&gt;\\Exception</title>
<path fill="none" stroke="black" d="M495.725,-77.5252C401.368,-64.2069 219.768,-38.5743 128.78,-25.7314"/>
<polygon fill="none" stroke="black" points="129.065,-22.237 118.674,-24.3049 128.087,-29.1683 129.065,-22.237"/>
</g>
</g>
</svg>
