<?xml version="1.0" encoding="UTF-8" standalone="no"?>
<!DOCTYPE svg PUBLIC "-//W3C//DTD SVG 1.1//EN"
 "http://www.w3.org/Graphics/SVG/1.1/DTD/svg11.dtd">
<!-- Generated by graphviz version 2.38.0 (20140413.2041)
 -->
<!-- Title: G Pages: 1 -->
<svg width="712pt" height="872pt"
 viewBox="0.00 0.00 711.52 872.00" xmlns="http://www.w3.org/2000/svg" xmlns:xlink="http://www.w3.org/1999/xlink">
<g id="graph0" class="graph" transform="scale(1 1) rotate(0) translate(4 868)">
<title>G</title>
<polygon fill="white" stroke="none" points="-4,4 -4,-868 707.525,-868 707.525,4 -4,4"/>
<g id="clust1" class="cluster"><title>cluster_Global</title>
<path fill="none" stroke="gray" d="M107.938,-98C107.938,-98 683.525,-98 683.525,-98 689.525,-98 695.525,-104 695.525,-110 695.525,-110 695.525,-844 695.525,-844 695.525,-850 689.525,-856 683.525,-856 683.525,-856 107.938,-856 107.938,-856 101.938,-856 95.9376,-850 95.9376,-844 95.9376,-844 95.9376,-110 95.9376,-110 95.9376,-104 101.938,-98 107.938,-98"/>
<text text-anchor="middle" x="395.731" y="-843.2" font-family="Times,serif" font-size="11.00" fill="gray">Global</text>
</g>
<g id="clust2" class="cluster"><title>cluster_\Battis</title>
<path fill="none" stroke="gray" d="M115.938,-106C115.938,-106 675.525,-106 675.525,-106 681.525,-106 687.525,-112 687.525,-118 687.525,-118 687.525,-817 687.525,-817 687.525,-823 681.525,-829 675.525,-829 675.525,-829 115.938,-829 115.938,-829 109.938,-829 103.938,-823 103.938,-817 103.938,-817 103.938,-118 103.938,-118 103.938,-112 109.938,-106 115.938,-106"/>
<text text-anchor="middle" x="395.731" y="-816.2" font-family="Times,serif" font-size="11.00" fill="gray">Battis</text>
</g>
<g id="clust3" class="cluster"><title>cluster_\Battis\BatchAction</title>
<path fill="none" stroke="gray" d="M123.938,-114C123.938,-114 667.525,-114 667.525,-114 673.525,-114 679.525,-120 679.525,-126 679.525,-126 679.525,-790 679.525,-790 679.525,-796 673.525,-802 667.525,-802 667.525,-802 123.938,-802 123.938,-802 117.938,-802 111.938,-796 111.938,-790 111.938,-790 111.938,-126 111.938,-126 111.938,-120 117.938,-114 123.938,-114"/>
<text text-anchor="middle" x="395.731" y="-789.2" font-family="Times,serif" font-size="11.00" fill="gray">BatchAction</text>
</g>
<g id="clust4" class="cluster"><title>cluster_\Battis\BatchAction\Actions</title>
<path fill="none" stroke="gray" d="M496.399,-596C496.399,-596 656.224,-596 656.224,-596 662.224,-596 668.224,-602 668.224,-608 668.224,-608 668.224,-763 668.224,-763 668.224,-769 662.224,-775 656.224,-775 656.224,-775 496.399,-775 496.399,-775 490.399,-775 484.399,-769 484.399,-763 484.399,-763 484.399,-608 484.399,-608 484.399,-602 490.399,-596 496.399,-596"/>
<text text-anchor="middle" x="576.312" y="-762.2" font-family="Times,serif" font-size="11.00" fill="gray">Actions</text>
</g>
<g id="clust5" class="cluster"><title>cluster_\Battis\BatchAction\Sandbox</title>
<path fill="none" stroke="gray" d="M131.938,-463C131.938,-463 659.525,-463 659.525,-463 665.525,-463 671.525,-469 671.525,-475 671.525,-475 671.525,-576 671.525,-576 671.525,-582 665.525,-588 659.525,-588 659.525,-588 131.938,-588 131.938,-588 125.938,-588 119.938,-582 119.938,-576 119.938,-576 119.938,-475 119.938,-475 119.938,-469 125.938,-463 131.938,-463"/>
<text text-anchor="middle" x="395.731" y="-575.2" font-family="Times,serif" font-size="11.00" fill="gray">Sandbox</text>
</g>
<g id="clust6" class="cluster"><title>cluster_\Battis\BatchAction\Filters</title>
<path fill="none" stroke="gray" d="M542.607,-384C542.607,-384 610.016,-384 610.016,-384 616.016,-384 622.016,-390 622.016,-396 622.016,-396 622.016,-443 622.016,-443 622.016,-449 616.016,-455 610.016,-455 610.016,-455 542.607,-455 542.607,-455 536.607,-455 530.607,-449 530.607,-443 530.607,-443 530.607,-396 530.607,-396 530.607,-390 536.607,-384 542.607,-384"/>
<text text-anchor="middle" x="576.312" y="-442.2" font-family="Times,serif" font-size="11.00" fill="gray">Filters</text>
</g>
<!-- \\Battis\\BatchAction\\Actions\\HttpAuthDirectoryAction -->
<g id="node1" class="node"><title>\\Battis\\BatchAction\\Actions\\HttpAuthDirectoryAction</title>
<polygon fill="none" stroke="black" points="660.136,-748 492.487,-748 492.487,-712 660.136,-712 660.136,-748"/>
<text text-anchor="middle" x="576.312" y="-726.7" font-family="Courier,monospace" font-size="11.00">HttpAuthDirectoryAction</text>
</g>
<!-- \\Battis\\BatchAction\\Action -->
<g id="node10" class="node"><title>\\Battis\\BatchAction\\Action</title>
<polygon fill="none" stroke="black" points="249.56,-694 167.539,-694 167.539,-658 249.56,-658 249.56,-694"/>
<text text-anchor="start" x="175.544" y="-678.2" font-family="Courier,monospace" font-size="11.00">«abstract»</text>
<text text-anchor="start" x="188.746" y="-667.2" font-family="Courier,monospace" font-size="11.00">Action</text>
</g>
<!-- \\Battis\\BatchAction\\Actions\\HttpAuthDirectoryAction&#45;&gt;\\Battis\\BatchAction\\Action -->
<g id="edge1" class="edge"><title>\\Battis\\BatchAction\\Actions\\HttpAuthDirectoryAction&#45;&gt;\\Battis\\BatchAction\\Action</title>
<path fill="none" stroke="black" d="M492.315,-717.747C420.785,-707.186 319.849,-692.284 259.915,-683.436"/>
<polygon fill="none" stroke="black" points="260.343,-679.961 249.939,-681.963 259.32,-686.886 260.343,-679.961"/>
</g>
<!-- \\Battis\\BatchAction\\Actions\\ImportConfigXMLAction -->
<g id="node2" class="node"><title>\\Battis\\BatchAction\\Actions\\ImportConfigXMLAction</title>
<polygon fill="none" stroke="black" points="653.435,-694 499.189,-694 499.189,-658 653.435,-658 653.435,-694"/>
<text text-anchor="middle" x="576.312" y="-672.7" font-family="Courier,monospace" font-size="11.00">ImportConfigXMLAction</text>
</g>
<!-- \\Battis\\BatchAction\\Actions\\ImportConfigXMLAction&#45;&gt;\\Battis\\BatchAction\\Action -->
<g id="edge4" class="edge"><title>\\Battis\\BatchAction\\Actions\\ImportConfigXMLAction&#45;&gt;\\Battis\\BatchAction\\Action</title>
<path fill="none" stroke="black" d="M499.081,-676C427.436,-676 322.224,-676 260.319,-676"/>
<polygon fill="none" stroke="black" points="260.025,-672.5 250.025,-676 260.025,-679.5 260.025,-672.5"/>
</g>
<!-- \\Battis\\BatchAction\\Actions\\ImportMySQLSchemaAction -->
<g id="node3" class="node"><title>\\Battis\\BatchAction\\Actions\\ImportMySQLSchemaAction</title>
<polygon fill="none" stroke="black" points="660.136,-640 492.487,-640 492.487,-604 660.136,-604 660.136,-640"/>
<text text-anchor="middle" x="576.312" y="-618.7" font-family="Courier,monospace" font-size="11.00">ImportMySQLSchemaAction</text>
</g>
<!-- \\Battis\\BatchAction\\Actions\\ImportMySQLSchemaAction&#45;&gt;\\Battis\\BatchAction\\Action -->
<g id="edge7" class="edge"><title>\\Battis\\BatchAction\\Actions\\ImportMySQLSchemaAction&#45;&gt;\\Battis\\BatchAction\\Action</title>
<path fill="none" stroke="black" d="M492.315,-634.253C420.785,-644.814 319.849,-659.716 259.915,-668.564"/>
<polygon fill="none" stroke="black" points="259.32,-665.114 249.939,-670.037 260.343,-672.039 259.32,-665.114"/>
</g>
<!-- \\Battis\\BatchAction\\Sandbox\\SandboxReplaceableData -->
<g id="node4" class="node"><title>\\Battis\\BatchAction\\Sandbox\\SandboxReplaceableData</title>
<polygon fill="none" stroke="black" points="289.273,-561 127.826,-561 127.826,-525 289.273,-525 289.273,-561"/>
<text text-anchor="middle" x="208.549" y="-539.7" font-family="Courier,monospace" font-size="11.00">SandboxReplaceableData</text>
</g>
<!-- \\Battis\\BatchAction\\Sandbox\\ConfigXMLReplaceableData -->
<g id="node5" class="node"><title>\\Battis\\BatchAction\\Sandbox\\ConfigXMLReplaceableData</title>
<polygon fill="none" stroke="black" points="663.738,-561 488.885,-561 488.885,-525 663.738,-525 663.738,-561"/>
<text text-anchor="middle" x="576.312" y="-539.7" font-family="Courier,monospace" font-size="11.00">ConfigXMLReplaceableData</text>
</g>
<!-- \\Battis\\BatchAction\\Sandbox\\ConfigXMLReplaceableData&#45;&gt;\\Battis\\BatchAction\\Sandbox\\SandboxReplaceableData -->
<g id="edge5" class="edge"><title>\\Battis\\BatchAction\\Sandbox\\ConfigXMLReplaceableData&#45;&gt;\\Battis\\BatchAction\\Sandbox\\SandboxReplaceableData</title>
<path fill="none" stroke="black" d="M489.094,-543C432.012,-543 357.299,-543 299.474,-543"/>
<polygon fill="none" stroke="black" points="299.249,-539.5 289.249,-543 299.249,-546.5 299.249,-539.5"/>
</g>
<!-- \\Battis\\BatchAction\\Sandbox\\Sandbox_Exception -->
<g id="node6" class="node"><title>\\Battis\\BatchAction\\Sandbox\\Sandbox_Exception</title>
<polygon fill="none" stroke="black" points="640.53,-507 512.093,-507 512.093,-471 640.53,-471 640.53,-507"/>
<text text-anchor="middle" x="576.312" y="-485.7" font-family="Courier,monospace" font-size="11.00">Sandbox_Exception</text>
</g>
<!-- \\Battis\\BatchAction\\Sandbox\\BatchManager_Exception -->
<g id="node16" class="node"><title>\\Battis\\BatchAction\\Sandbox\\BatchManager_Exception</title>
<ellipse fill="none" stroke="black" cx="208.549" cy="-72" rx="208.599" ry="18"/>
<text text-anchor="middle" x="208.549" y="-67.8" font-family="Times,serif" font-size="14.00" fill="gray">\Battis\BatchAction\Sandbox\BatchManager_Exception</text>
</g>
<!-- \\Battis\\BatchAction\\Sandbox\\Sandbox_Exception&#45;&gt;\\Battis\\BatchAction\\Sandbox\\BatchManager_Exception -->
<g id="edge8" class="edge"><title>\\Battis\\BatchAction\\Sandbox\\Sandbox_Exception&#45;&gt;\\Battis\\BatchAction\\Sandbox\\BatchManager_Exception</title>
<path fill="none" stroke="black" d="M511.846,-477.763C501.484,-473.403 491.753,-467.363 484.399,-459 380.085,-340.372 529.324,-221.174 417.099,-110 407.559,-100.55 396.496,-93.0269 384.542,-87.073"/>
<polygon fill="none" stroke="black" points="385.787,-83.7938 375.237,-82.82 382.877,-90.1603 385.787,-83.7938"/>
</g>
<!-- \\Battis\\BatchAction\\Filters\\TagFilter -->
<g id="node7" class="node"><title>\\Battis\\BatchAction\\Filters\\TagFilter</title>
<polygon fill="none" stroke="black" points="614.222,-428 538.401,-428 538.401,-392 614.222,-392 614.222,-428"/>
<text text-anchor="middle" x="576.312" y="-406.7" font-family="Courier,monospace" font-size="11.00">TagFilter</text>
</g>
<!-- \\Battis\\BatchAction\\Filter -->
<g id="node14" class="node"><title>\\Battis\\BatchAction\\Filter</title>
<polygon fill="none" stroke="black" points="236.157,-428 180.942,-428 180.942,-392 236.157,-392 236.157,-428"/>
<text text-anchor="middle" x="208.549" y="-406.7" font-family="Courier,monospace" font-size="11.00">Filter</text>
</g>
<!-- \\Battis\\BatchAction\\Filters\\TagFilter&#45;&gt;\\Battis\\BatchAction\\Filter -->
<g id="edge2" class="edge"><title>\\Battis\\BatchAction\\Filters\\TagFilter&#45;&gt;\\Battis\\BatchAction\\Filter</title>
<path fill="none" stroke="black" stroke-dasharray="1,5" d="M538.566,-410C468.608,-410 317.006,-410 246.719,-410"/>
<polygon fill="none" stroke="black" points="246.56,-406.5 236.56,-410 246.56,-413.5 246.56,-406.5"/>
</g>
<!-- \\Battis\\BatchAction\\Result -->
<g id="node8" class="node"><title>\\Battis\\BatchAction\\Result</title>
<polygon fill="none" stroke="black" points="603.919,-374 548.704,-374 548.704,-338 603.919,-338 603.919,-374"/>
<text text-anchor="middle" x="576.312" y="-352.7" font-family="Courier,monospace" font-size="11.00">Result</text>
</g>
<!-- \\Battis\\BatchAction\\Sandbox -->
<g id="node9" class="node"><title>\\Battis\\BatchAction\\Sandbox</title>
<polygon fill="none" stroke="black" points="607.519,-320 545.104,-320 545.104,-284 607.519,-284 607.519,-320"/>
<text text-anchor="middle" x="576.312" y="-298.7" font-family="Courier,monospace" font-size="11.00">Sandbox</text>
</g>
<!-- \\Battis\\BatchAction\\BatchManager -->
<g id="node11" class="node"><title>\\Battis\\BatchAction\\BatchManager</title>
<polygon fill="none" stroke="black" points="624.025,-266 528.598,-266 528.598,-230 624.025,-230 624.025,-266"/>
<text text-anchor="middle" x="576.312" y="-244.7" font-family="Courier,monospace" font-size="11.00">BatchManager</text>
</g>
<!-- \\Battis\\BatchAction\\BatchManager_Exception -->
<g id="node12" class="node"><title>\\Battis\\BatchAction\\BatchManager_Exception</title>
<polygon fill="none" stroke="black" points="657.035,-212 495.588,-212 495.588,-176 657.035,-176 657.035,-212"/>
<text text-anchor="middle" x="576.312" y="-190.7" font-family="Courier,monospace" font-size="11.00">BatchManager_Exception</text>
</g>
<!-- \\Exception -->
<g id="node15" class="node"><title>\\Exception</title>
<ellipse fill="none" stroke="black" cx="208.549" cy="-18" rx="48.3341" ry="18"/>
<text text-anchor="middle" x="208.549" y="-13.8" font-family="Times,serif" font-size="14.00" fill="gray">\Exception</text>
</g>
<!-- \\Battis\\BatchAction\\BatchManager_Exception&#45;&gt;\\Exception -->
<g id="edge3" class="edge"><title>\\Battis\\BatchAction\\BatchManager_Exception&#45;&gt;\\Exception</title>
<path fill="none" stroke="black" d="M498.177,-175.985C493.284,-173.384 488.632,-170.407 484.399,-167 436.158,-128.173 468.277,-79.8648 417.099,-45 372.523,-14.6328 309.86,-10.4038 265.073,-12.2111"/>
<polygon fill="none" stroke="black" points="264.755,-8.72279 254.949,-12.7339 265.116,-15.7135 264.755,-8.72279"/>
</g>
<!-- \\Battis\\BatchAction\\Action_Exception -->
<g id="node13" class="node"><title>\\Battis\\BatchAction\\Action_Exception</title>
<polygon fill="none" stroke="black" points="636.929,-158 515.694,-158 515.694,-122 636.929,-122 636.929,-158"/>
<text text-anchor="middle" x="576.312" y="-136.7" font-family="Courier,monospace" font-size="11.00">Action_Exception</text>
</g>
<!-- \\Battis\\BatchAction\\Action_Exception&#45;&gt;\\Exception -->
<g id="edge6" class="edge"><title>\\Battis\\BatchAction\\Action_Exception&#45;&gt;\\Exception</title>
<path fill="none" stroke="black" d="M552.197,-121.88C522.671,-99.7761 469.141,-63.1205 417.099,-45 368.278,-28.0011 309.619,-21.5573 267.136,-19.1868"/>
<polygon fill="none" stroke="black" points="267.134,-15.6825 256.972,-18.6799 266.785,-22.6738 267.134,-15.6825"/>
</g>
</g>
</svg>
