<?xml version="1.0" encoding="UTF-8" standalone="no"?>
<!DOCTYPE svg PUBLIC "-//W3C//DTD SVG 1.1//EN"
 "http://www.w3.org/Graphics/SVG/1.1/DTD/svg11.dtd">
<!-- Generated by graphviz version 2.38.0 (20140413.2041)
 -->
<!-- Title: G Pages: 1 -->
<svg width="610pt" height="651pt"
 viewBox="0.00 0.00 609.88 651.00" xmlns="http://www.w3.org/2000/svg" xmlns:xlink="http://www.w3.org/1999/xlink">
<g id="graph0" class="graph" transform="scale(1 1) rotate(0) translate(4 647)">
<title>G</title>
<polygon fill="white" stroke="none" points="-4,4 -4,-647 605.882,-647 605.882,4 -4,4"/>
<g id="clust1" class="cluster"><title>cluster_Global</title>
<path fill="none" stroke="gray" d="M156.834,-8C156.834,-8 581.882,-8 581.882,-8 587.882,-8 593.882,-14 593.882,-20 593.882,-20 593.882,-623 593.882,-623 593.882,-629 587.882,-635 581.882,-635 581.882,-635 156.834,-635 156.834,-635 150.834,-635 144.834,-629 144.834,-623 144.834,-623 144.834,-20 144.834,-20 144.834,-14 150.834,-8 156.834,-8"/>
<text text-anchor="middle" x="369.358" y="-622.2" font-family="Times,serif" font-size="11.00" fill="gray">Global</text>
</g>
<g id="clust2" class="cluster"><title>cluster_\Battis</title>
<path fill="none" stroke="gray" d="M164.834,-16C164.834,-16 573.882,-16 573.882,-16 579.882,-16 585.882,-22 585.882,-28 585.882,-28 585.882,-596 585.882,-596 585.882,-602 579.882,-608 573.882,-608 573.882,-608 164.834,-608 164.834,-608 158.834,-608 152.834,-602 152.834,-596 152.834,-596 152.834,-28 152.834,-28 152.834,-22 158.834,-16 164.834,-16"/>
<text text-anchor="middle" x="369.358" y="-595.2" font-family="Times,serif" font-size="11.00" fill="gray">Battis</text>
</g>
<g id="clust3" class="cluster"><title>cluster_\Battis\BatchAction</title>
<path fill="none" stroke="gray" d="M172.834,-24C172.834,-24 565.882,-24 565.882,-24 571.882,-24 577.882,-30 577.882,-36 577.882,-36 577.882,-569 577.882,-569 577.882,-575 571.882,-581 565.882,-581 565.882,-581 172.834,-581 172.834,-581 166.834,-581 160.834,-575 160.834,-569 160.834,-569 160.834,-36 160.834,-36 160.834,-30 166.834,-24 172.834,-24"/>
<text text-anchor="middle" x="369.358" y="-568.2" font-family="Times,serif" font-size="11.00" fill="gray">BatchAction</text>
</g>
<!-- \\Battis\\BatchAction\\Result -->
<g id="node1" class="node"><title>\\Battis\\BatchAction\\Result</title>
<polygon fill="none" stroke="black" points="513.578,-554 458.362,-554 458.362,-518 513.578,-518 513.578,-554"/>
<text text-anchor="middle" x="485.97" y="-532.7" font-family="Courier,monospace" font-size="11.00">Result</text>
</g>
<!-- \\Battis\\BatchAction\\Sandbox -->
<g id="node2" class="node"><title>\\Battis\\BatchAction\\Sandbox</title>
<polygon fill="none" stroke="black" points="517.178,-500 454.762,-500 454.762,-464 517.178,-464 517.178,-500"/>
<text text-anchor="middle" x="485.97" y="-478.7" font-family="Courier,monospace" font-size="11.00">Sandbox</text>
</g>
<!-- \\Battis\\BatchAction\\Action -->
<g id="node3" class="node"><title>\\Battis\\BatchAction\\Action</title>
<polygon fill="none" stroke="black" points="290.457,-338 208.435,-338 208.435,-302 290.457,-302 290.457,-338"/>
<text text-anchor="start" x="216.44" y="-322.2" font-family="Courier,monospace" font-size="11.00">«abstract»</text>
<text text-anchor="start" x="229.643" y="-311.2" font-family="Courier,monospace" font-size="11.00">Action</text>
</g>
<!-- \\Battis\\BatchAction\\HttpAuthDirectoryAction -->
<g id="node4" class="node"><title>\\Battis\\BatchAction\\HttpAuthDirectoryAction</title>
<polygon fill="none" stroke="black" points="569.795,-446 402.145,-446 402.145,-410 569.795,-410 569.795,-446"/>
<text text-anchor="middle" x="485.97" y="-424.7" font-family="Courier,monospace" font-size="11.00">HttpAuthDirectoryAction</text>
</g>
<!-- \\Battis\\BatchAction\\HttpAuthDirectoryAction&#45;&gt;\\Battis\\BatchAction\\Action -->
<g id="edge1" class="edge"><title>\\Battis\\BatchAction\\HttpAuthDirectoryAction&#45;&gt;\\Battis\\BatchAction\\Action</title>
<path fill="none" stroke="black" d="M425.172,-409.925C417.318,-407.145 409.439,-404.145 402.058,-401 362.497,-384.146 319.438,-360.603 289.352,-343.24"/>
<polygon fill="none" stroke="black" points="290.854,-340.065 280.449,-338.065 287.335,-346.117 290.854,-340.065"/>
</g>
<!-- \\Battis\\BatchAction\\BatchManager -->
<g id="node5" class="node"><title>\\Battis\\BatchAction\\BatchManager</title>
<polygon fill="none" stroke="black" points="533.683,-392 438.257,-392 438.257,-356 533.683,-356 533.683,-392"/>
<text text-anchor="middle" x="485.97" y="-370.7" font-family="Courier,monospace" font-size="11.00">BatchManager</text>
</g>
<!-- \\Battis\\BatchAction\\ImportConfigXMLAction -->
<g id="node6" class="node"><title>\\Battis\\BatchAction\\ImportConfigXMLAction</title>
<polygon fill="none" stroke="black" points="563.093,-338 408.847,-338 408.847,-302 563.093,-302 563.093,-338"/>
<text text-anchor="middle" x="485.97" y="-316.7" font-family="Courier,monospace" font-size="11.00">ImportConfigXMLAction</text>
</g>
<!-- \\Battis\\BatchAction\\ImportConfigXMLAction&#45;&gt;\\Battis\\BatchAction\\Action -->
<g id="edge2" class="edge"><title>\\Battis\\BatchAction\\ImportConfigXMLAction&#45;&gt;\\Battis\\BatchAction\\Action</title>
<path fill="none" stroke="black" d="M408.827,-320C373.498,-320 332.468,-320 301.022,-320"/>
<polygon fill="none" stroke="black" points="300.747,-316.5 290.747,-320 300.747,-323.5 300.747,-316.5"/>
</g>
<!-- \\Battis\\BatchAction\\ImportMySQLSchemaAction -->
<g id="node7" class="node"><title>\\Battis\\BatchAction\\ImportMySQLSchemaAction</title>
<polygon fill="none" stroke="black" points="569.795,-284 402.145,-284 402.145,-248 569.795,-248 569.795,-284"/>
<text text-anchor="middle" x="485.97" y="-262.7" font-family="Courier,monospace" font-size="11.00">ImportMySQLSchemaAction</text>
</g>
<!-- \\Battis\\BatchAction\\ImportMySQLSchemaAction&#45;&gt;\\Battis\\BatchAction\\Action -->
<g id="edge3" class="edge"><title>\\Battis\\BatchAction\\ImportMySQLSchemaAction&#45;&gt;\\Battis\\BatchAction\\Action</title>
<path fill="none" stroke="black" d="M406.551,-284.056C371.617,-292.1 331.498,-301.337 300.68,-308.433"/>
<polygon fill="none" stroke="black" points="299.565,-305.098 290.606,-310.753 301.136,-311.92 299.565,-305.098"/>
</g>
<!-- \\Battis\\BatchAction\\BatchManager_Exception -->
<g id="node8" class="node"><title>\\Battis\\BatchAction\\BatchManager_Exception</title>
<polygon fill="none" stroke="black" points="330.17,-160 168.722,-160 168.722,-124 330.17,-124 330.17,-160"/>
<text text-anchor="middle" x="249.446" y="-138.7" font-family="Courier,monospace" font-size="11.00">BatchManager_Exception</text>
</g>
<!-- \\Exception -->
<g id="node14" class="node"><title>\\Exception</title>
<ellipse fill="none" stroke="black" cx="48.417" cy="-103" rx="48.3341" ry="18"/>
<text text-anchor="middle" x="48.417" y="-98.8" font-family="Times,serif" font-size="14.00" fill="gray">\Exception</text>
</g>
<!-- \\Battis\\BatchAction\\BatchManager_Exception&#45;&gt;\\Exception -->
<g id="edge4" class="edge"><title>\\Battis\\BatchAction\\BatchManager_Exception&#45;&gt;\\Exception</title>
<path fill="none" stroke="black" d="M168.64,-126.362C146.066,-121.939 122.082,-117.239 101.591,-113.224"/>
<polygon fill="none" stroke="black" points="102.013,-109.74 91.527,-111.252 100.667,-116.609 102.013,-109.74"/>
</g>
<!-- \\Battis\\BatchAction\\TagFilter -->
<g id="node9" class="node"><title>\\Battis\\BatchAction\\TagFilter</title>
<polygon fill="none" stroke="black" points="523.881,-230 448.059,-230 448.059,-194 523.881,-194 523.881,-230"/>
<text text-anchor="middle" x="485.97" y="-208.7" font-family="Courier,monospace" font-size="11.00">TagFilter</text>
</g>
<!-- \\Battis\\BatchAction\\Filter -->
<g id="node13" class="node"><title>\\Battis\\BatchAction\\Filter</title>
<polygon fill="none" stroke="black" points="277.054,-230 221.838,-230 221.838,-194 277.054,-194 277.054,-230"/>
<text text-anchor="middle" x="249.446" y="-208.7" font-family="Courier,monospace" font-size="11.00">Filter</text>
</g>
<!-- \\Battis\\BatchAction\\TagFilter&#45;&gt;\\Battis\\BatchAction\\Filter -->
<g id="edge5" class="edge"><title>\\Battis\\BatchAction\\TagFilter&#45;&gt;\\Battis\\BatchAction\\Filter</title>
<path fill="none" stroke="black" stroke-dasharray="1,5" d="M448.068,-212C404.213,-212 331.467,-212 287.532,-212"/>
<polygon fill="none" stroke="black" points="287.284,-208.5 277.284,-212 287.284,-215.5 287.284,-208.5"/>
</g>
<!-- \\Battis\\BatchAction\\Sandbox_Exception -->
<g id="node10" class="node"><title>\\Battis\\BatchAction\\Sandbox_Exception</title>
<polygon fill="none" stroke="black" points="550.188,-176 421.752,-176 421.752,-140 550.188,-140 550.188,-176"/>
<text text-anchor="middle" x="485.97" y="-154.7" font-family="Courier,monospace" font-size="11.00">Sandbox_Exception</text>
</g>
<!-- \\Battis\\BatchAction\\Sandbox_Exception&#45;&gt;\\Battis\\BatchAction\\BatchManager_Exception -->
<g id="edge6" class="edge"><title>\\Battis\\BatchAction\\Sandbox_Exception&#45;&gt;\\Battis\\BatchAction\\BatchManager_Exception</title>
<path fill="none" stroke="black" d="M421.813,-153.691C396.791,-151.984 367.558,-149.99 340.396,-148.137"/>
<polygon fill="none" stroke="black" points="340.316,-144.623 330.101,-147.434 339.839,-151.607 340.316,-144.623"/>
</g>
<!-- \\Battis\\BatchAction\\SandboxReplaceableData -->
<g id="node11" class="node"><title>\\Battis\\BatchAction\\SandboxReplaceableData</title>
<polygon fill="none" stroke="black" points="566.694,-122 405.246,-122 405.246,-86 566.694,-86 566.694,-122"/>
<text text-anchor="middle" x="485.97" y="-100.7" font-family="Courier,monospace" font-size="11.00">SandboxReplaceableData</text>
</g>
<!-- \\Battis\\BatchAction\\Action_Exception -->
<g id="node12" class="node"><title>\\Battis\\BatchAction\\Action_Exception</title>
<polygon fill="none" stroke="black" points="546.588,-68 425.352,-68 425.352,-32 546.588,-32 546.588,-68"/>
<text text-anchor="middle" x="485.97" y="-46.7" font-family="Courier,monospace" font-size="11.00">Action_Exception</text>
</g>
<!-- \\Battis\\BatchAction\\Action_Exception&#45;&gt;\\Exception -->
<g id="edge7" class="edge"><title>\\Battis\\BatchAction\\Action_Exception&#45;&gt;\\Exception</title>
<path fill="none" stroke="black" d="M425.321,-57.2583C340.755,-67.5488 187.166,-86.238 104.923,-96.2458"/>
<polygon fill="none" stroke="black" points="104.277,-92.7985 94.7731,-97.4809 105.123,-99.7472 104.277,-92.7985"/>
</g>
</g>
</svg>
