<?xml version="1.0" encoding="UTF-8" standalone="no"?>
<!DOCTYPE svg PUBLIC "-//W3C//DTD SVG 1.1//EN"
 "http://www.w3.org/Graphics/SVG/1.1/DTD/svg11.dtd">
<!-- Generated by graphviz version 2.38.0 (20140413.2041)
 -->
<!-- Title: G Pages: 1 -->
<svg width="618pt" height="703pt"
 viewBox="0.00 0.00 617.88 703.00" xmlns="http://www.w3.org/2000/svg" xmlns:xlink="http://www.w3.org/1999/xlink">
<g id="graph0" class="graph" transform="scale(1 1) rotate(0) translate(4 699)">
<title>G</title>
<polygon fill="white" stroke="none" points="-4,4 -4,-699 613.882,-699 613.882,4 -4,4"/>
<g id="clust1" class="cluster"><title>cluster_Global</title>
<path fill="none" stroke="gray" d="M156.834,-8C156.834,-8 589.882,-8 589.882,-8 595.882,-8 601.882,-14 601.882,-20 601.882,-20 601.882,-675 601.882,-675 601.882,-681 595.882,-687 589.882,-687 589.882,-687 156.834,-687 156.834,-687 150.834,-687 144.834,-681 144.834,-675 144.834,-675 144.834,-20 144.834,-20 144.834,-14 150.834,-8 156.834,-8"/>
<text text-anchor="middle" x="373.358" y="-674.2" font-family="Times,serif" font-size="11.00" fill="gray">Global</text>
</g>
<g id="clust2" class="cluster"><title>cluster_\Battis</title>
<path fill="none" stroke="gray" d="M164.834,-16C164.834,-16 581.882,-16 581.882,-16 587.882,-16 593.882,-22 593.882,-28 593.882,-28 593.882,-648 593.882,-648 593.882,-654 587.882,-660 581.882,-660 581.882,-660 164.834,-660 164.834,-660 158.834,-660 152.834,-654 152.834,-648 152.834,-648 152.834,-28 152.834,-28 152.834,-22 158.834,-16 164.834,-16"/>
<text text-anchor="middle" x="373.358" y="-647.2" font-family="Times,serif" font-size="11.00" fill="gray">Battis</text>
</g>
<g id="clust3" class="cluster"><title>cluster_\Battis\BatchAction</title>
<path fill="none" stroke="gray" d="M172.834,-24C172.834,-24 573.882,-24 573.882,-24 579.882,-24 585.882,-30 585.882,-36 585.882,-36 585.882,-621 585.882,-621 585.882,-627 579.882,-633 573.882,-633 573.882,-633 172.834,-633 172.834,-633 166.834,-633 160.834,-627 160.834,-621 160.834,-621 160.834,-36 160.834,-36 160.834,-30 166.834,-24 172.834,-24"/>
<text text-anchor="middle" x="373.358" y="-620.2" font-family="Times,serif" font-size="11.00" fill="gray">BatchAction</text>
</g>
<g id="clust4" class="cluster"><title>cluster_\Battis\BatchAction\Actions</title>
<path fill="none" stroke="gray" d="M406.058,-427C406.058,-427 565.882,-427 565.882,-427 571.882,-427 577.882,-433 577.882,-439 577.882,-439 577.882,-594 577.882,-594 577.882,-600 571.882,-606 565.882,-606 565.882,-606 406.058,-606 406.058,-606 400.058,-606 394.058,-600 394.058,-594 394.058,-594 394.058,-439 394.058,-439 394.058,-433 400.058,-427 406.058,-427"/>
<text text-anchor="middle" x="485.97" y="-593.2" font-family="Times,serif" font-size="11.00" fill="gray">Actions</text>
</g>
<g id="clust5" class="cluster"><title>cluster_\Battis\BatchAction\Filters</title>
<path fill="none" stroke="gray" d="M452.265,-348C452.265,-348 519.675,-348 519.675,-348 525.675,-348 531.675,-354 531.675,-360 531.675,-360 531.675,-407 531.675,-407 531.675,-413 525.675,-419 519.675,-419 519.675,-419 452.265,-419 452.265,-419 446.265,-419 440.265,-413 440.265,-407 440.265,-407 440.265,-360 440.265,-360 440.265,-354 446.265,-348 452.265,-348"/>
<text text-anchor="middle" x="485.97" y="-406.2" font-family="Times,serif" font-size="11.00" fill="gray">Filters</text>
</g>
<!-- \\Battis\\BatchAction\\Actions\\HttpAuthDirectoryAction -->
<g id="node1" class="node"><title>\\Battis\\BatchAction\\Actions\\HttpAuthDirectoryAction</title>
<polygon fill="none" stroke="black" points="569.795,-579 402.145,-579 402.145,-543 569.795,-543 569.795,-579"/>
<text text-anchor="middle" x="485.97" y="-557.7" font-family="Courier,monospace" font-size="11.00">HttpAuthDirectoryAction</text>
</g>
<!-- \\Battis\\BatchAction\\Action -->
<g id="node7" class="node"><title>\\Battis\\BatchAction\\Action</title>
<polygon fill="none" stroke="black" points="290.457,-525 208.435,-525 208.435,-489 290.457,-489 290.457,-525"/>
<text text-anchor="start" x="216.44" y="-509.2" font-family="Courier,monospace" font-size="11.00">«abstract»</text>
<text text-anchor="start" x="229.643" y="-498.2" font-family="Courier,monospace" font-size="11.00">Action</text>
</g>
<!-- \\Battis\\BatchAction\\Actions\\HttpAuthDirectoryAction&#45;&gt;\\Battis\\BatchAction\\Action -->
<g id="edge1" class="edge"><title>\\Battis\\BatchAction\\Actions\\HttpAuthDirectoryAction&#45;&gt;\\Battis\\BatchAction\\Action</title>
<path fill="none" stroke="black" d="M406.551,-542.944C371.617,-534.9 331.498,-525.663 300.68,-518.567"/>
<polygon fill="none" stroke="black" points="301.136,-515.08 290.606,-516.247 299.565,-521.902 301.136,-515.08"/>
</g>
<!-- \\Battis\\BatchAction\\Actions\\ImportConfigXMLAction -->
<g id="node2" class="node"><title>\\Battis\\BatchAction\\Actions\\ImportConfigXMLAction</title>
<polygon fill="none" stroke="black" points="563.093,-525 408.847,-525 408.847,-489 563.093,-489 563.093,-525"/>
<text text-anchor="middle" x="485.97" y="-503.7" font-family="Courier,monospace" font-size="11.00">ImportConfigXMLAction</text>
</g>
<!-- \\Battis\\BatchAction\\Actions\\ImportConfigXMLAction&#45;&gt;\\Battis\\BatchAction\\Action -->
<g id="edge4" class="edge"><title>\\Battis\\BatchAction\\Actions\\ImportConfigXMLAction&#45;&gt;\\Battis\\BatchAction\\Action</title>
<path fill="none" stroke="black" d="M408.827,-507C373.498,-507 332.468,-507 301.022,-507"/>
<polygon fill="none" stroke="black" points="300.747,-503.5 290.747,-507 300.747,-510.5 300.747,-503.5"/>
</g>
<!-- \\Battis\\BatchAction\\Actions\\ImportMySQLSchemaAction -->
<g id="node3" class="node"><title>\\Battis\\BatchAction\\Actions\\ImportMySQLSchemaAction</title>
<polygon fill="none" stroke="black" points="569.795,-471 402.145,-471 402.145,-435 569.795,-435 569.795,-471"/>
<text text-anchor="middle" x="485.97" y="-449.7" font-family="Courier,monospace" font-size="11.00">ImportMySQLSchemaAction</text>
</g>
<!-- \\Battis\\BatchAction\\Actions\\ImportMySQLSchemaAction&#45;&gt;\\Battis\\BatchAction\\Action -->
<g id="edge7" class="edge"><title>\\Battis\\BatchAction\\Actions\\ImportMySQLSchemaAction&#45;&gt;\\Battis\\BatchAction\\Action</title>
<path fill="none" stroke="black" d="M406.551,-471.056C371.617,-479.1 331.498,-488.337 300.68,-495.433"/>
<polygon fill="none" stroke="black" points="299.565,-492.098 290.606,-497.753 301.136,-498.92 299.565,-492.098"/>
</g>
<!-- \\Battis\\BatchAction\\Filters\\TagFilter -->
<g id="node4" class="node"><title>\\Battis\\BatchAction\\Filters\\TagFilter</title>
<polygon fill="none" stroke="black" points="523.881,-392 448.059,-392 448.059,-356 523.881,-356 523.881,-392"/>
<text text-anchor="middle" x="485.97" y="-370.7" font-family="Courier,monospace" font-size="11.00">TagFilter</text>
</g>
<!-- \\Battis\\BatchAction\\Filter -->
<g id="node13" class="node"><title>\\Battis\\BatchAction\\Filter</title>
<polygon fill="none" stroke="black" points="277.054,-392 221.838,-392 221.838,-356 277.054,-356 277.054,-392"/>
<text text-anchor="middle" x="249.446" y="-370.7" font-family="Courier,monospace" font-size="11.00">Filter</text>
</g>
<!-- \\Battis\\BatchAction\\Filters\\TagFilter&#45;&gt;\\Battis\\BatchAction\\Filter -->
<g id="edge2" class="edge"><title>\\Battis\\BatchAction\\Filters\\TagFilter&#45;&gt;\\Battis\\BatchAction\\Filter</title>
<path fill="none" stroke="black" stroke-dasharray="1,5" d="M448.068,-374C404.213,-374 331.467,-374 287.532,-374"/>
<polygon fill="none" stroke="black" points="287.284,-370.5 277.284,-374 287.284,-377.5 287.284,-370.5"/>
</g>
<!-- \\Battis\\BatchAction\\Result -->
<g id="node5" class="node"><title>\\Battis\\BatchAction\\Result</title>
<polygon fill="none" stroke="black" points="513.578,-338 458.362,-338 458.362,-302 513.578,-302 513.578,-338"/>
<text text-anchor="middle" x="485.97" y="-316.7" font-family="Courier,monospace" font-size="11.00">Result</text>
</g>
<!-- \\Battis\\BatchAction\\Sandbox -->
<g id="node6" class="node"><title>\\Battis\\BatchAction\\Sandbox</title>
<polygon fill="none" stroke="black" points="517.178,-284 454.762,-284 454.762,-248 517.178,-248 517.178,-284"/>
<text text-anchor="middle" x="485.97" y="-262.7" font-family="Courier,monospace" font-size="11.00">Sandbox</text>
</g>
<!-- \\Battis\\BatchAction\\BatchManager -->
<g id="node8" class="node"><title>\\Battis\\BatchAction\\BatchManager</title>
<polygon fill="none" stroke="black" points="533.683,-230 438.257,-230 438.257,-194 533.683,-194 533.683,-230"/>
<text text-anchor="middle" x="485.97" y="-208.7" font-family="Courier,monospace" font-size="11.00">BatchManager</text>
</g>
<!-- \\Battis\\BatchAction\\BatchManager_Exception -->
<g id="node9" class="node"><title>\\Battis\\BatchAction\\BatchManager_Exception</title>
<polygon fill="none" stroke="black" points="330.17,-160 168.722,-160 168.722,-124 330.17,-124 330.17,-160"/>
<text text-anchor="middle" x="249.446" y="-138.7" font-family="Courier,monospace" font-size="11.00">BatchManager_Exception</text>
</g>
<!-- \\Exception -->
<g id="node14" class="node"><title>\\Exception</title>
<ellipse fill="none" stroke="black" cx="48.417" cy="-103" rx="48.3341" ry="18"/>
<text text-anchor="middle" x="48.417" y="-98.8" font-family="Times,serif" font-size="14.00" fill="gray">\Exception</text>
</g>
<!-- \\Battis\\BatchAction\\BatchManager_Exception&#45;&gt;\\Exception -->
<g id="edge3" class="edge"><title>\\Battis\\BatchAction\\BatchManager_Exception&#45;&gt;\\Exception</title>
<path fill="none" stroke="black" d="M168.64,-126.362C146.066,-121.939 122.082,-117.239 101.591,-113.224"/>
<polygon fill="none" stroke="black" points="102.013,-109.74 91.527,-111.252 100.667,-116.609 102.013,-109.74"/>
</g>
<!-- \\Battis\\BatchAction\\Sandbox_Exception -->
<g id="node10" class="node"><title>\\Battis\\BatchAction\\Sandbox_Exception</title>
<polygon fill="none" stroke="black" points="550.188,-176 421.752,-176 421.752,-140 550.188,-140 550.188,-176"/>
<text text-anchor="middle" x="485.97" y="-154.7" font-family="Courier,monospace" font-size="11.00">Sandbox_Exception</text>
</g>
<!-- \\Battis\\BatchAction\\Sandbox_Exception&#45;&gt;\\Battis\\BatchAction\\BatchManager_Exception -->
<g id="edge5" class="edge"><title>\\Battis\\BatchAction\\Sandbox_Exception&#45;&gt;\\Battis\\BatchAction\\BatchManager_Exception</title>
<path fill="none" stroke="black" d="M421.813,-153.691C396.791,-151.984 367.558,-149.99 340.396,-148.137"/>
<polygon fill="none" stroke="black" points="340.316,-144.623 330.101,-147.434 339.839,-151.607 340.316,-144.623"/>
</g>
<!-- \\Battis\\BatchAction\\SandboxReplaceableData -->
<g id="node11" class="node"><title>\\Battis\\BatchAction\\SandboxReplaceableData</title>
<polygon fill="none" stroke="black" points="566.694,-122 405.246,-122 405.246,-86 566.694,-86 566.694,-122"/>
<text text-anchor="middle" x="485.97" y="-100.7" font-family="Courier,monospace" font-size="11.00">SandboxReplaceableData</text>
</g>
<!-- \\Battis\\BatchAction\\Action_Exception -->
<g id="node12" class="node"><title>\\Battis\\BatchAction\\Action_Exception</title>
<polygon fill="none" stroke="black" points="546.588,-68 425.352,-68 425.352,-32 546.588,-32 546.588,-68"/>
<text text-anchor="middle" x="485.97" y="-46.7" font-family="Courier,monospace" font-size="11.00">Action_Exception</text>
</g>
<!-- \\Battis\\BatchAction\\Action_Exception&#45;&gt;\\Exception -->
<g id="edge6" class="edge"><title>\\Battis\\BatchAction\\Action_Exception&#45;&gt;\\Exception</title>
<path fill="none" stroke="black" d="M425.321,-57.2583C340.755,-67.5488 187.166,-86.238 104.923,-96.2458"/>
<polygon fill="none" stroke="black" points="104.277,-92.7985 94.7731,-97.4809 105.123,-99.7472 104.277,-92.7985"/>
</g>
</g>
</svg>
